<svg width="318" height="301" viewBox="0 0 318 301" fill="none" xmlns="http://www.w3.org/2000/svg">
<g filter="url(#filter0_f_2_200)">
<path d="M89.0621 10.7799C65.4027 23.3766 45.5944 42.1428 31.7386 65.0876C17.8829 88.0324 10.4965 114.3 10.3632 141.103C10.2298 167.907 17.3545 194.246 30.9813 217.328C44.6081 240.409 64.2287 259.372 87.7616 272.203C111.294 285.035 137.862 291.257 164.645 290.209C191.429 289.162 217.429 280.883 239.888 266.253C262.346 251.623 280.426 231.186 292.208 207.11C303.99 183.035 309.036 156.219 306.809 129.508L208.503 137.702C209.25 146.667 207.557 155.667 203.602 163.747C199.648 171.828 193.58 178.687 186.043 183.597C178.505 188.507 169.779 191.286 160.79 191.637C151.801 191.989 142.884 189.9 134.986 185.594C127.088 181.287 120.503 174.923 115.929 167.177C111.356 159.43 108.965 150.59 109.009 141.594C109.054 132.598 111.533 123.782 116.183 116.082C120.834 108.381 127.482 102.082 135.422 97.8547L89.0621 10.7799Z" fill="#2B676D" fill-opacity="0.5"/>
</g>
<defs>
<filter id="filter0_f_2_200" x="0.361328" y="0.779907" width="316.961" height="299.543" filterUnits="userSpaceOnUse" color-interpolation-filters="sRGB">
<feFlood flood-opacity="0" result="BackgroundImageFix"/>
<feBlend mode="normal" in="SourceGraphic" in2="BackgroundImageFix" result="shape"/>
<feGaussianBlur stdDeviation="5" result="effect1_foregroundBlur_2_200"/>
</filter>
</defs>
</svg>
