<svg width="666" height="691" viewBox="0 0 666 691" fill="none" xmlns="http://www.w3.org/2000/svg">
<g filter="url(#filter0_f_2_198)">
<path d="M616.843 319.484C609.465 273.184 589.69 229.744 559.618 193.773C529.546 157.803 490.298 130.644 446.038 115.177C401.777 99.7104 354.155 96.5131 308.225 105.924C262.294 115.336 219.768 137.005 185.157 168.632C150.546 200.26 125.142 240.666 111.641 285.565C98.1388 330.464 97.0425 378.18 108.468 423.652C119.894 469.123 143.415 510.654 176.537 543.837C209.658 577.021 251.145 600.62 296.595 612.131L338.958 444.859C323.704 440.996 309.781 433.075 298.664 421.938C287.548 410.801 279.654 396.863 275.819 381.601C271.984 366.34 272.352 350.326 276.884 335.257C281.415 320.188 289.941 306.626 301.557 296.011C313.174 285.397 327.446 278.124 342.862 274.965C358.277 271.807 374.26 272.88 389.115 278.071C403.969 283.262 417.142 292.377 427.235 304.449C437.327 316.522 443.964 331.101 446.441 346.641L616.843 319.484Z" fill="#2B676D" fill-opacity="0.5"/>
</g>
<defs>
<filter id="filter0_f_2_198" x="0.638062" y="0.638062" width="716.205" height="711.493" filterUnits="userSpaceOnUse" color-interpolation-filters="sRGB">
<feFlood flood-opacity="0" result="BackgroundImageFix"/>
<feBlend mode="normal" in="SourceGraphic" in2="BackgroundImageFix" result="shape"/>
<feGaussianBlur stdDeviation="50" result="effect1_foregroundBlur_2_198"/>
</filter>
</defs>
</svg>
