<svg width="309" height="358" viewBox="0 0 309 358" fill="none" xmlns="http://www.w3.org/2000/svg">
<g filter="url(#filter0_f_2_199)">
<path d="M30.6937 289.349C50.6761 307.214 75.1218 319.336 101.437 324.43C127.752 329.524 154.956 327.399 180.161 318.282C205.367 309.165 227.634 293.394 244.601 272.644C261.568 251.894 272.602 226.938 276.531 200.424C280.461 173.91 277.14 146.826 266.921 122.047C256.703 97.2678 239.967 75.7167 218.489 59.6804C197.012 43.644 171.594 33.7205 144.932 30.9627C118.271 28.2049 91.36 32.7156 67.0549 44.0162L108.645 133.468C116.803 129.675 125.834 128.161 134.783 129.087C143.731 130.012 152.262 133.343 159.47 138.725C166.678 144.107 172.295 151.34 175.725 159.656C179.154 167.973 180.269 177.063 178.95 185.961C177.631 194.86 173.928 203.236 168.234 210.2C162.539 217.164 155.066 222.457 146.606 225.517C138.147 228.577 129.017 229.29 120.185 227.58C111.353 225.871 103.148 221.802 96.4417 215.806L30.6937 289.349Z" fill="#2B676D" fill-opacity="0.5"/>
</g>
<defs>
<filter id="filter0_f_2_199" x="0.693604" y="0.174622" width="307.442" height="356.961" filterUnits="userSpaceOnUse" color-interpolation-filters="sRGB">
<feFlood flood-opacity="0" result="BackgroundImageFix"/>
<feBlend mode="normal" in="SourceGraphic" in2="BackgroundImageFix" result="shape"/>
<feGaussianBlur stdDeviation="15" result="effect1_foregroundBlur_2_199"/>
</filter>
</defs>
</svg>
