<svg width="24" height="24" viewBox="0 0 24 24" fill="none" xmlns="http://www.w3.org/2000/svg">
<path d="M10.0678 13.5968C10.036 13.5101 9.97141 13.4394 9.88796 13.3999C9.80451 13.3603 9.70887 13.3552 9.62164 13.3854L8.96411 13.6438C8.87743 13.6756 8.80671 13.7402 8.76719 13.8236C8.72766 13.9071 8.72248 14.0027 8.75276 14.0899C8.77685 14.1581 8.82131 14.2172 8.88013 14.2592C8.93894 14.3012 9.00925 14.3241 9.08153 14.3248H9.22243L9.87996 14.0665C9.92361 14.0486 9.96322 14.0221 9.99643 13.9886C10.0296 13.955 10.0558 13.9152 10.0733 13.8714C10.0908 13.8276 10.0994 13.7807 10.0984 13.7335C10.0975 13.6864 10.0871 13.6399 10.0678 13.5968Z" fill="#2B676D"/>
<path d="M14.882 11.3659L14.2245 11.6008C14.136 11.6374 14.0649 11.7064 14.0256 11.7937C13.9864 11.881 13.9819 11.9799 14.0131 12.0704C14.0381 12.1362 14.0835 12.1922 14.1427 12.2303C14.2018 12.2683 14.2717 12.2864 14.3419 12.2818H14.4593L15.1168 12.0469C15.2052 12.0103 15.2763 11.9413 15.3156 11.854C15.3549 11.7667 15.3594 11.6677 15.3282 11.5773C15.2963 11.4906 15.2318 11.4199 15.1483 11.3803C15.0649 11.3408 14.9692 11.3356 14.882 11.3659Z" fill="#2B676D"/>
<path d="M12.5806 12.9629H12.7215L13.3791 12.7046C13.4219 12.6892 13.4611 12.6651 13.4941 12.6338C13.5271 12.6025 13.5533 12.5647 13.571 12.5228C13.5886 12.4808 13.5974 12.4357 13.5967 12.3902C13.596 12.3447 13.5859 12.2998 13.5669 12.2584C13.5516 12.2156 13.5275 12.1764 13.4962 12.1434C13.4649 12.1104 13.427 12.0842 13.3851 12.0665C13.3432 12.0489 13.298 12.0401 13.2525 12.0408C13.207 12.0415 13.1621 12.0516 13.1208 12.0706L12.4632 12.3054C12.3748 12.342 12.3037 12.411 12.2644 12.4983C12.2251 12.5856 12.2207 12.6846 12.2519 12.7751C12.2831 12.8344 12.3306 12.8837 12.3889 12.9169C12.4471 12.9502 12.5136 12.9662 12.5806 12.9629Z" fill="#2B676D"/>
<path d="M11.6179 13.3619C11.6628 13.3491 11.7044 13.3268 11.7401 13.2965C11.7757 13.2663 11.8044 13.2288 11.8244 13.1866C11.8444 13.1444 11.8552 13.0984 11.856 13.0517C11.8569 13.005 11.8477 12.9586 11.8292 12.9157C11.7926 12.8273 11.7236 12.7562 11.6363 12.7169C11.549 12.6777 11.4501 12.6732 11.3596 12.7044L10.702 12.9627C10.6179 13.0036 10.552 13.0743 10.5172 13.1612C10.4825 13.248 10.4814 13.3447 10.5142 13.4324C10.5391 13.4981 10.5846 13.5542 10.6437 13.5922C10.7029 13.6302 10.7727 13.6483 10.8429 13.6437H10.9604L11.6179 13.3619Z" fill="#2B676D"/>
<path d="M13.0034 15.264C13.0199 15.3448 13.0641 15.4172 13.1285 15.4687C13.1929 15.5202 13.2732 15.5475 13.3557 15.5458H13.4261C13.5175 15.5234 13.5971 15.4676 13.6493 15.3893C13.7014 15.3111 13.7224 15.2161 13.7079 15.1231L13.567 14.3952C13.5446 14.3038 13.4888 14.2242 13.4105 14.172C13.3322 14.1198 13.2372 14.0989 13.1443 14.1134C13.0529 14.1358 12.9733 14.1916 12.9211 14.2699C12.869 14.3481 12.848 14.4431 12.8625 14.5361L13.0034 15.264Z" fill="#2B676D"/>
<path d="M12.2989 11.3893C12.3048 11.4724 12.342 11.5501 12.4031 11.6067C12.4641 11.6634 12.5443 11.6948 12.6276 11.6946H12.6981C12.7438 11.6892 12.7879 11.6742 12.8275 11.6506C12.8671 11.627 12.9013 11.5954 12.9278 11.5577C12.9544 11.5201 12.9728 11.4773 12.9817 11.4321C12.9907 11.3869 12.9901 11.3403 12.9799 11.2954L12.839 10.5439C12.8218 10.4544 12.7706 10.3751 12.6962 10.3225C12.6217 10.27 12.5298 10.2483 12.4398 10.2621C12.3931 10.2705 12.3485 10.2882 12.3088 10.3142C12.2692 10.3402 12.2351 10.374 12.2088 10.4134C12.1825 10.4529 12.1644 10.4973 12.1557 10.5439C12.1469 10.5906 12.1477 10.6385 12.1579 10.6848L12.2989 11.3893Z" fill="#2B676D"/>
<path d="M12.3459 9.74561C12.4354 9.72843 12.5147 9.67725 12.5673 9.60281C12.6198 9.52837 12.6415 9.43646 12.6277 9.34639L12.4868 8.61841C12.4576 8.54228 12.4029 8.47864 12.332 8.43835C12.2611 8.39805 12.1784 8.3836 12.0981 8.39746C12.0177 8.41131 11.9447 8.45261 11.8914 8.51432C11.8381 8.57602 11.8078 8.65431 11.8058 8.73582L11.9232 9.46381C11.9435 9.54258 11.9888 9.61264 12.0523 9.66345C12.1159 9.71427 12.1941 9.7431 12.2755 9.74561H12.3459Z" fill="#2B676D"/>
<path d="M8.79992 6.41096C8.73215 6.47368 8.69172 6.5605 8.68733 6.65273C8.68293 6.74497 8.71494 6.83524 8.77644 6.90411C8.80941 6.93968 8.84938 6.96805 8.89383 6.98746C8.93828 7.00686 8.98625 7.01688 9.03476 7.01688C9.08326 7.01688 9.13123 7.00686 9.17568 6.98746C9.22013 6.96805 9.2601 6.93968 9.29307 6.90411H9.31656C9.78977 7.31073 10.3537 7.59782 10.9609 7.74127C11.5681 7.88471 12.2008 7.88032 12.806 7.72846C13.4111 7.57659 13.971 7.2817 14.4385 6.86855C14.906 6.45541 15.2675 5.93608 15.4927 5.35421L15.5866 5.44814C15.6541 5.51954 15.7468 5.56169 15.8449 5.56556C15.8885 5.56759 15.932 5.56026 15.9725 5.54406C16.013 5.52785 16.0496 5.50315 16.0798 5.47162C16.1163 5.44247 16.1461 5.40588 16.1674 5.36428C16.1886 5.32267 16.2008 5.27702 16.203 5.23036C16.2052 5.1837 16.1975 5.1371 16.1803 5.09366C16.1631 5.05023 16.1368 5.01096 16.1032 4.97847L15.7275 4.55577C15.7548 4.34545 15.7705 4.13378 15.7745 3.92172C15.7745 2.88162 15.3613 1.88411 14.6258 1.14865C13.8904 0.41318 12.8929 0 11.8528 0C10.8127 0 9.81515 0.41318 9.07968 1.14865C8.34422 1.88411 7.93104 2.88162 7.93104 3.92172C7.92938 4.8301 8.24501 5.71053 8.82341 6.41096H8.79992ZM11.8528 0.681018C12.4891 0.681018 13.1111 0.869705 13.6402 1.22322C14.1692 1.57673 14.5816 2.07919 14.8251 2.66706C15.0686 3.25493 15.1323 3.90181 15.0082 4.52589C14.884 5.14997 14.5776 5.72322 14.1277 6.17316C13.6777 6.6231 13.1045 6.92951 12.4804 7.05364C11.8563 7.17778 11.2095 7.11407 10.6216 6.87056C10.0337 6.62706 9.53125 6.2147 9.17774 5.68563C8.82423 5.15656 8.63554 4.53455 8.63554 3.89824C8.63554 3.04498 8.97449 2.22667 9.57784 1.62332C10.1812 1.01997 10.9995 0.681018 11.8528 0.681018Z" fill="#2B676D"/>
<path d="M7.69609 8.33652C7.79424 8.33265 7.88696 8.2905 7.95441 8.21911L8.44756 7.72596C8.49844 7.65812 8.52314 7.57421 8.51713 7.48963C8.51112 7.40506 8.4748 7.32548 8.41484 7.26553C8.35488 7.20557 8.27531 7.16925 8.19073 7.16324C8.10615 7.15723 8.02225 7.18193 7.95441 7.2328L7.46126 7.72596C7.39349 7.78867 7.35306 7.87549 7.34867 7.96773C7.34427 8.05996 7.37627 8.15023 7.43778 8.21911C7.50523 8.2905 7.59795 8.33265 7.69609 8.33652Z" fill="#2B676D"/>
<path d="M5.01899 10.9667C5.06615 10.9691 5.11331 10.9621 5.15769 10.9459C5.20206 10.9298 5.24274 10.9049 5.27731 10.8727L5.77046 10.3796C5.80544 10.3487 5.83346 10.3108 5.85265 10.2683C5.87184 10.2258 5.88177 10.1797 5.88177 10.133C5.88177 10.0864 5.87184 10.0403 5.85265 9.99774C5.83346 9.95523 5.80544 9.91728 5.77046 9.88643C5.70774 9.81866 5.62092 9.77823 5.52869 9.77384C5.43645 9.76944 5.34618 9.80144 5.27731 9.86295L4.78416 10.3561C4.71809 10.4259 4.68127 10.5183 4.68127 10.6144C4.68127 10.7105 4.71809 10.803 4.78416 10.8727C4.81327 10.9056 4.84967 10.9312 4.89044 10.9475C4.93122 10.9638 4.97524 10.9704 5.01899 10.9667Z" fill="#2B676D"/>
<path d="M6.35761 9.65168C6.40477 9.65413 6.45194 9.64708 6.49631 9.63095C6.54069 9.61481 6.58137 9.58992 6.61593 9.55774L7.10908 9.06459C7.17515 8.99481 7.21196 8.90237 7.21196 8.80628C7.21196 8.71018 7.17515 8.61774 7.10908 8.54796C7.04324 8.48342 6.95471 8.44727 6.86251 8.44727C6.7703 8.44727 6.68178 8.48342 6.61593 8.54796L6.12278 9.04111C6.05671 9.11089 6.0199 9.20333 6.0199 9.29943C6.0199 9.39552 6.05671 9.48796 6.12278 9.55774C6.18673 9.61705 6.27041 9.65052 6.35761 9.65168Z" fill="#2B676D"/>
<path d="M16.8546 6.8101C16.9173 6.87787 17.0041 6.9183 17.0964 6.9227C17.1886 6.92709 17.2789 6.89509 17.3477 6.83359C17.3842 6.80443 17.4141 6.76784 17.4354 6.72624C17.4566 6.68463 17.4688 6.63898 17.471 6.59232C17.4732 6.54566 17.4655 6.49906 17.4483 6.45562C17.4311 6.41219 17.4048 6.37292 17.3712 6.34043L16.9016 5.8238C16.873 5.78246 16.836 5.74771 16.7929 5.72186C16.7499 5.69601 16.7018 5.67967 16.6519 5.67394C16.602 5.6682 16.5514 5.6732 16.5036 5.6886C16.4558 5.704 16.4119 5.72945 16.3747 5.76324C16.3375 5.79702 16.308 5.83836 16.2882 5.88449C16.2683 5.93062 16.2585 5.98046 16.2595 6.03067C16.2604 6.08089 16.2721 6.13032 16.2938 6.17564C16.3154 6.22097 16.3465 6.26114 16.3849 6.29347L16.8546 6.8101Z" fill="#2B676D"/>
<path d="M19.5317 16.9551C19.487 16.9406 19.4398 16.9353 19.393 16.9393C19.3462 16.9433 19.3007 16.9566 19.2591 16.9785C19.2175 17.0004 19.1808 17.0304 19.1509 17.0667C19.1211 17.103 19.0989 17.1449 19.0855 17.19L18.8741 17.8475C18.8557 17.8904 18.8465 17.9367 18.8473 17.9834C18.8482 18.0301 18.8589 18.0761 18.8789 18.1184C18.8989 18.1606 18.9277 18.1981 18.9633 18.2283C18.9989 18.2585 19.0406 18.2808 19.0855 18.2937H19.2029C19.2752 18.293 19.3455 18.2701 19.4043 18.2281C19.4631 18.1861 19.5076 18.127 19.5317 18.0588L19.7665 17.4013C19.7897 17.311 19.7784 17.2154 19.735 17.133C19.6917 17.0505 19.6192 16.9871 19.5317 16.9551Z" fill="#2B676D"/>
<path d="M20.1188 15.1702C20.0741 15.1557 20.027 15.1503 19.9802 15.1544C19.9334 15.1584 19.8878 15.1717 19.8463 15.1936C19.8047 15.2155 19.7679 15.2455 19.7381 15.2818C19.7083 15.3181 19.686 15.36 19.6727 15.405L19.4613 16.0626C19.4428 16.1055 19.4337 16.1518 19.4345 16.1985C19.4353 16.2452 19.4461 16.2912 19.4661 16.3335C19.4861 16.3757 19.5149 16.4131 19.5505 16.4434C19.5861 16.4736 19.6277 16.4959 19.6727 16.5088H19.7901C19.8653 16.5065 19.9378 16.4801 19.9969 16.4337C20.0561 16.3872 20.0988 16.323 20.1188 16.2504L20.3537 15.5929C20.3705 15.5061 20.3562 15.4161 20.3133 15.3388C20.2703 15.2614 20.2015 15.2018 20.1188 15.1702Z" fill="#2B676D"/>
<path d="M10.4202 19.5148L9.80968 19.2095C9.76875 19.186 9.72322 19.1715 9.67621 19.1672C9.6292 19.1628 9.5818 19.1686 9.53723 19.1842C9.49267 19.1998 9.45199 19.2248 9.41796 19.2576C9.38392 19.2903 9.35734 19.33 9.34001 19.3739C9.30673 19.4554 9.30514 19.5463 9.33556 19.6289C9.36598 19.7115 9.42621 19.7797 9.5044 19.8201L10.115 20.1254H10.2559C10.3369 20.1389 10.4202 20.1217 10.4892 20.0769C10.5581 20.0322 10.6078 19.9632 10.6285 19.8836C10.6491 19.804 10.6392 19.7196 10.6006 19.647C10.5621 19.5744 10.4977 19.5188 10.4202 19.4913V19.5148Z" fill="#2B676D"/>
<path d="M8.7764 18.7162L8.16584 18.4109C8.08437 18.3776 7.9934 18.3761 7.91082 18.4065C7.82825 18.4369 7.76005 18.4971 7.71965 18.5753C7.68637 18.6568 7.68478 18.7478 7.7152 18.8303C7.74562 18.9129 7.80585 18.9811 7.88404 19.0215L8.4946 19.3268H8.6355C8.69911 19.3284 8.76181 19.3115 8.816 19.2781C8.87019 19.2448 8.91354 19.1964 8.94079 19.1389C8.96001 19.1007 8.971 19.0589 8.97304 19.0162C8.97508 18.9735 8.96813 18.9309 8.95263 18.891C8.93714 18.8512 8.91344 18.815 8.88308 18.7849C8.85272 18.7548 8.81638 18.7314 8.7764 18.7162Z" fill="#2B676D"/>
<path d="M7.60217 14.9355L8.1188 14.7241C8.16163 14.7088 8.2008 14.6847 8.23383 14.6534C8.26687 14.6221 8.29304 14.5842 8.3107 14.5423C8.32836 14.5004 8.33712 14.4552 8.33642 14.4097C8.33573 14.3642 8.3256 14.3193 8.30667 14.278C8.2938 14.2331 8.27151 14.1914 8.24128 14.1558C8.21105 14.1202 8.17358 14.0914 8.13136 14.0714C8.08914 14.0514 8.04315 14.0406 7.99644 14.0398C7.94973 14.039 7.90338 14.0481 7.86048 14.0666L7.43778 14.231C7.20502 13.5802 6.8082 13.0004 6.28572 12.5479C5.76324 12.0953 5.1328 11.7853 4.45539 11.6478C4.48452 11.6177 4.50714 11.5819 4.52182 11.5426C4.5365 11.5033 4.54294 11.4615 4.54074 11.4196C4.53854 11.3778 4.52774 11.3368 4.50901 11.2993C4.49029 11.2618 4.46404 11.2286 4.43191 11.2016C4.40106 11.1667 4.36312 11.1386 4.3206 11.1194C4.27809 11.1003 4.23198 11.0903 4.18534 11.0903C4.13869 11.0903 4.09258 11.1003 4.05007 11.1194C4.00756 11.1386 3.96961 11.1667 3.93876 11.2016L3.53954 11.6009C2.55406 11.6974 1.64156 12.1631 0.985237 12.9045C0.328912 13.6459 -0.0226492 14.6082 0.00113235 15.5981C0.0249139 16.588 0.422278 17.5323 1.11345 18.2413C1.80462 18.9504 2.73843 19.3718 3.72741 19.4208C4.73751 19.4213 5.70738 19.0249 6.428 18.3171L6.8507 18.5285L7.01508 18.5754C7.07759 18.572 7.13826 18.553 7.19157 18.5202C7.24489 18.4874 7.28916 18.4418 7.32037 18.3876C7.35496 18.3027 7.35734 18.2081 7.32706 18.1216C7.29679 18.0351 7.23595 17.9627 7.15598 17.9179L6.89767 17.8005C7.38459 17.1318 7.64762 16.3263 7.64913 15.4991C7.64517 15.3104 7.62948 15.1222 7.60217 14.9355ZM3.72741 18.7163C3.0911 18.7163 2.46909 18.5276 1.94002 18.1741C1.41095 17.8206 0.99859 17.3181 0.755086 16.7303C0.511582 16.1424 0.44787 15.4955 0.572007 14.8714C0.696145 14.2474 1.00256 13.6741 1.45249 13.2242C1.90243 12.7742 2.47568 12.4678 3.09976 12.3437C3.72384 12.2196 4.37072 12.2833 4.95859 12.5268C5.54646 12.7703 6.04892 13.1826 6.40243 13.7117C6.75595 14.2408 6.94463 14.8628 6.94463 15.4991C6.94463 16.3524 6.60568 17.1707 6.00233 17.774C5.39898 18.3774 4.58067 18.7163 3.72741 18.7163Z" fill="#2B676D"/>
<path d="M4.90157 15.8512V17.0488H2.6002V15.8512C2.39355 15.7075 2.21786 15.5239 2.08356 15.311C2.02279 15.373 1.9749 15.4465 1.94266 15.5271C1.91041 15.6077 1.89445 15.6939 1.8957 15.7807V17.1193C1.8957 17.2025 1.9121 17.285 1.94396 17.3619C1.97583 17.4388 2.02253 17.5087 2.08141 17.5676C2.14028 17.6265 2.21018 17.6732 2.28711 17.705C2.36403 17.7369 2.44648 17.7533 2.52975 17.7533H4.97202C5.05528 17.7533 5.13773 17.7369 5.21466 17.705C5.29159 17.6732 5.36148 17.6265 5.42036 17.5676C5.47924 17.5087 5.52594 17.4388 5.55781 17.3619C5.58967 17.285 5.60607 17.2025 5.60607 17.1193V15.7807C5.60683 15.6975 5.59056 15.6149 5.55825 15.5382C5.52594 15.4615 5.47828 15.3922 5.4182 15.3345C5.28294 15.5401 5.10714 15.7159 4.90157 15.8512Z" fill="#2B676D"/>
<path d="M3.46916 15.4989C3.68114 15.5437 3.90098 15.5344 4.10844 15.472C4.3159 15.4095 4.50432 15.2959 4.65634 15.1415C4.80837 14.9872 4.91912 14.797 4.9784 14.5886C5.03768 14.3802 5.04359 14.1603 4.99558 13.949C4.94507 13.7166 4.8302 13.5031 4.6641 13.3328C4.498 13.1626 4.28736 13.0424 4.05625 12.9862C3.72962 12.9257 3.39224 12.9934 3.11421 13.1752C2.83618 13.3569 2.63887 13.6389 2.5633 13.9623C2.48772 14.2858 2.53968 14.626 2.70838 14.9121C2.87708 15.1983 3.14954 15.4084 3.46916 15.4989ZM3.18736 14.0899C3.21489 13.9912 3.26878 13.9019 3.34326 13.8316C3.41774 13.7613 3.50998 13.7126 3.61007 13.6907C3.70716 13.6682 3.80839 13.6708 3.90421 13.6982C4.00004 13.7256 4.0873 13.777 4.15778 13.8475C4.22826 13.918 4.27963 14.0052 4.30706 14.1011C4.33449 14.1969 4.33708 14.2981 4.31457 14.3952C4.28704 14.4939 4.23315 14.5832 4.15867 14.6535C4.08419 14.7239 3.99195 14.7726 3.89187 14.7944C3.79477 14.8169 3.69354 14.8144 3.59771 14.7869C3.50189 14.7595 3.41463 14.7081 3.34415 14.6376C3.27367 14.5672 3.2223 14.4799 3.19487 14.3841C3.16744 14.2883 3.16485 14.187 3.18736 14.0899Z" fill="#2B676D"/>
<path d="M10.655 6.15248H13.0972C13.2654 6.15248 13.4267 6.08567 13.5456 5.96677C13.6645 5.84786 13.7313 5.68659 13.7313 5.51842V4.17987C13.7325 4.09306 13.7166 4.00686 13.6843 3.92625C13.6521 3.84564 13.6042 3.77221 13.5434 3.71021C13.4091 3.92303 13.2334 4.1067 13.0268 4.25032V5.44797H10.7254V4.25032C10.526 4.10576 10.3581 3.92196 10.2323 3.71021C10.1637 3.76728 10.109 3.83924 10.0723 3.92063C10.0357 4.00201 10.0181 4.09067 10.0209 4.17987V5.51842C10.0209 5.60169 10.0373 5.68414 10.0692 5.76107C10.101 5.83799 10.1477 5.90789 10.2066 5.96677C10.2655 6.02564 10.3354 6.07235 10.4123 6.10421C10.4893 6.13608 10.5717 6.15248 10.655 6.15248Z" fill="#2B676D"/>
<path d="M11.5945 3.8749C11.9245 3.95275 12.272 3.89629 12.5605 3.71792C12.849 3.53956 13.0548 3.25392 13.1326 2.92382C13.2105 2.59373 13.154 2.24623 12.9756 1.95777C12.7973 1.66931 12.5116 1.46351 12.1815 1.38566C11.9679 1.33614 11.7452 1.34182 11.5344 1.40217C11.3236 1.46251 11.1316 1.57554 10.9766 1.73059C10.8215 1.88565 10.7085 2.07762 10.6481 2.28843C10.5878 2.49925 10.5821 2.72195 10.6316 2.93556C10.6879 3.16668 10.808 3.37731 10.9782 3.54341C11.1485 3.70951 11.362 3.82438 11.5945 3.8749ZM11.3361 2.48938C11.3658 2.39303 11.4173 2.3048 11.4865 2.23151C11.5557 2.15821 11.6409 2.10182 11.7354 2.06668C11.8324 2.04417 11.9337 2.04675 12.0295 2.07418C12.1253 2.10161 12.2126 2.15299 12.2831 2.22347C12.3535 2.29394 12.4049 2.38121 12.4324 2.47703C12.4598 2.57285 12.4624 2.67408 12.4399 2.77118C12.4161 2.87419 12.3639 2.96845 12.2892 3.04319C12.2144 3.11793 12.1202 3.17015 12.0172 3.19388C11.9207 3.21865 11.8195 3.21743 11.7237 3.19035C11.6278 3.16327 11.5409 3.11129 11.4717 3.03971C11.4025 2.96813 11.3535 2.8795 11.3297 2.78283C11.3059 2.68616 11.3081 2.58491 11.3361 2.48938Z" fill="#2B676D"/>
<path d="M23.8761 10.2154C23.8761 9.17532 23.4629 8.17781 22.7274 7.44235C21.992 6.70688 20.9944 6.2937 19.9543 6.2937C18.9142 6.2937 17.9167 6.70688 17.1813 7.44235C16.4458 8.17781 16.0326 9.17532 16.0326 10.2154C16.0339 10.4442 16.0575 10.6723 16.1031 10.8964L15.9622 10.9434C15.9193 10.9588 15.8802 10.9829 15.8471 11.0142C15.8141 11.0455 15.7879 11.0833 15.7703 11.1253C15.7526 11.1672 15.7439 11.2123 15.7445 11.2578C15.7452 11.3033 15.7554 11.3482 15.7743 11.3896C15.7984 11.4577 15.8429 11.5168 15.9017 11.5588C15.9605 11.6008 16.0308 11.6237 16.1031 11.6244H16.2675C16.5603 12.362 17.0688 12.9942 17.7266 13.4382C18.3843 13.8823 19.1607 14.1177 19.9543 14.1137H20.0952L20.0483 14.278C20.0298 14.3209 20.0206 14.3673 20.0215 14.414C20.0223 14.4607 20.0331 14.5067 20.0531 14.5489C20.0731 14.5911 20.1018 14.6286 20.1374 14.6588C20.1731 14.6891 20.2147 14.7114 20.2596 14.7242H20.377C20.4493 14.7235 20.5196 14.7006 20.5784 14.6586C20.6373 14.6166 20.6817 14.5575 20.7058 14.4894L20.8702 14.0197C21.7232 13.8106 22.482 13.3229 23.0265 12.6338C23.571 11.9447 23.8699 11.0936 23.8761 10.2154ZM19.9543 13.4092C19.317 13.4091 18.6941 13.2199 18.1645 12.8653C17.635 12.5107 17.2226 12.0069 16.9798 11.4176C16.737 10.8284 16.6747 10.1803 16.8008 9.5556C16.9268 8.93089 17.2356 8.35769 17.6879 7.9087C18.1401 7.45972 18.7156 7.15517 19.3412 7.0337C19.9668 6.91223 20.6144 6.9793 21.2019 7.22641C21.7893 7.47352 22.2901 7.88953 22.6408 8.42168C22.9915 8.95383 23.1762 9.57814 23.1716 10.2154C23.1716 10.6368 23.0882 11.054 22.9262 11.4431C22.7643 11.8321 22.5269 12.1852 22.2278 12.4821C21.9288 12.779 21.5739 13.0137 21.1837 13.1728C20.7935 13.3319 20.3757 13.4123 19.9543 13.4092Z" fill="#2B676D"/>
<path d="M21.1286 10.5677V11.7419H18.8272V10.5442C18.6216 10.409 18.4458 10.2332 18.3105 10.0276C18.1914 10.1456 18.1238 10.3061 18.1227 10.4738V11.8358C18.1288 11.9999 18.1982 12.1552 18.3165 12.269C18.4347 12.3829 18.5926 12.4465 18.7567 12.4464H21.199C21.3632 12.4465 21.521 12.3829 21.6392 12.269C21.7575 12.1552 21.827 11.9999 21.8331 11.8358V10.4738C21.8319 10.3061 21.7644 10.1456 21.6452 10.0276C21.5039 10.2348 21.3293 10.4173 21.1286 10.5677Z" fill="#2B676D"/>
<path d="M19.6726 10.1917C19.8863 10.2412 20.109 10.2355 20.3198 10.1752C20.5306 10.1148 20.7226 10.0018 20.8776 9.84674C21.0327 9.69168 21.1457 9.4997 21.206 9.28889C21.2664 9.07808 21.2721 8.85538 21.2225 8.64176C21.1656 8.42618 21.0528 8.22942 20.8956 8.07132C20.7383 7.91323 20.5422 7.7994 20.3269 7.7413C20.1116 7.68321 19.8848 7.68291 19.6694 7.74043C19.4539 7.79795 19.2575 7.91126 19.0998 8.06893C18.9421 8.2266 18.8288 8.42306 18.7713 8.63849C18.7138 8.85393 18.7141 9.08072 18.7722 9.296C18.8303 9.51128 18.9441 9.70743 19.1022 9.86468C19.2603 10.0219 19.4571 10.1347 19.6726 10.1917ZM19.4143 8.80614C19.4381 8.70314 19.4903 8.60888 19.565 8.53414C19.6398 8.45939 19.734 8.40717 19.837 8.38344C19.9341 8.36094 20.0354 8.36352 20.1312 8.39095C20.227 8.41838 20.3143 8.46975 20.3847 8.54023C20.4552 8.61071 20.5066 8.69797 20.534 8.7938C20.5615 8.88962 20.564 8.99085 20.5415 9.08795C20.5113 9.18773 20.4569 9.27851 20.3831 9.35224C20.3094 9.42597 20.2186 9.48038 20.1188 9.51065C20.0217 9.53316 19.9205 9.53057 19.8247 9.50314C19.7289 9.47571 19.6416 9.42434 19.5711 9.35386C19.5006 9.28338 19.4493 9.19612 19.4218 9.1003C19.3944 9.00447 19.3918 8.90324 19.4143 8.80614Z" fill="#2B676D"/>
<path d="M15.2342 16.1565C14.7934 16.1598 14.3565 16.2393 13.9427 16.3914V16.3444C13.9372 16.2986 13.9222 16.2545 13.8986 16.215C13.8751 16.1754 13.8434 16.1412 13.8058 16.1146C13.7681 16.088 13.7253 16.0697 13.6801 16.0607C13.635 16.0518 13.5884 16.0524 13.5434 16.0626C13.4977 16.068 13.4536 16.083 13.414 16.1066C13.3744 16.1302 13.3402 16.1618 13.3137 16.1995C13.2871 16.2371 13.2687 16.2799 13.2598 16.3251C13.2508 16.3703 13.2514 16.4169 13.2616 16.4618V16.6966C12.6881 17.0325 12.2087 17.5078 11.868 18.0785C11.5272 18.6491 11.3362 19.2966 11.3125 19.9608C11.2339 19.958 11.1566 19.9817 11.0929 20.0279C11.0293 20.0742 10.9829 20.1404 10.9613 20.2161C10.9397 20.2918 10.944 20.3725 10.9736 20.4454C11.0032 20.5183 11.0564 20.5792 11.1247 20.6184L11.3595 20.7123C11.4805 21.4508 11.8102 22.1393 12.3098 22.6964C12.8095 23.2536 13.458 23.6562 14.179 23.8566C14.9 24.0571 15.6633 24.0471 16.3788 23.8278C17.0943 23.6085 17.7321 23.1891 18.217 22.619C18.7018 22.049 19.0134 21.3521 19.115 20.6107C19.2166 19.8693 19.104 19.1143 18.7904 18.4348C18.4768 17.7553 17.9753 17.1798 17.3452 16.7761C16.7151 16.3724 15.9826 16.1574 15.2342 16.1565ZM15.2342 23.2955C14.5979 23.2955 13.9759 23.1068 13.4469 22.7533C12.9178 22.3998 12.5054 21.8973 12.2619 21.3094C12.0184 20.7216 11.9547 20.0747 12.0788 19.4506C12.203 18.8265 12.5094 18.2533 12.9593 17.8033C13.4093 17.3534 13.9825 17.047 14.6066 16.9228C15.2307 16.7987 15.8776 16.8624 16.4654 17.1059C17.0533 17.3494 17.5558 17.7618 17.9093 18.2909C18.2628 18.8199 18.4515 19.4419 18.4515 20.0782C18.4515 20.9315 18.1125 21.7498 17.5092 22.3532C16.9058 22.9565 16.0875 23.2955 15.2342 23.2955Z" fill="#2B676D"/>
<path d="M16.4084 20.4305V21.6281H14.107V20.4305C13.9004 20.2869 13.7247 20.1032 13.5904 19.8904C13.5296 19.9524 13.4817 20.0258 13.4495 20.1064C13.4173 20.187 13.4013 20.2732 13.4025 20.36V21.6986C13.4025 21.8668 13.4693 22.028 13.5882 22.1469C13.7071 22.2658 13.8684 22.3326 14.0366 22.3326H16.4789C16.647 22.3326 16.8083 22.2658 16.9272 22.1469C17.0461 22.028 17.1129 21.8668 17.1129 21.6986V20.36C17.1141 20.2732 17.0982 20.187 17.0659 20.1064C17.0337 20.0258 16.9858 19.9524 16.925 19.8904C16.7837 20.0976 16.6092 20.2801 16.4084 20.4305Z" fill="#2B676D"/>
<path d="M14.9525 20.0547C15.1646 20.1096 15.3873 20.1085 15.5989 20.0517C15.8105 19.9949 16.0037 19.8842 16.1598 19.7305C16.3159 19.5768 16.4295 19.3852 16.4896 19.1746C16.5496 18.9639 16.554 18.7412 16.5024 18.5283C16.4428 18.2964 16.3219 18.0847 16.1526 17.9153C15.9832 17.746 15.7716 17.6252 15.5396 17.5655C15.3276 17.5207 15.1078 17.53 14.9003 17.5924C14.6929 17.6549 14.5045 17.7685 14.3524 17.9229C14.2004 18.0773 14.0897 18.2674 14.0304 18.4758C13.9711 18.6842 13.9652 18.9041 14.0132 19.1154C14.0596 19.3472 14.1735 19.5601 14.3407 19.7272C14.5078 19.8944 14.7207 20.0083 14.9525 20.0547ZM14.6942 18.6692C14.7478 18.5387 14.8465 18.4319 14.9724 18.3683C15.0983 18.3047 15.2428 18.2885 15.3797 18.3227C15.5165 18.3569 15.6364 18.4392 15.7175 18.5546C15.7987 18.67 15.8355 18.8107 15.8214 18.951C15.7911 19.0508 15.7367 19.1416 15.663 19.2153C15.5893 19.289 15.4985 19.3434 15.3987 19.3737C15.3016 19.3962 15.2004 19.3936 15.1046 19.3662C15.0087 19.3388 14.9215 19.2874 14.851 19.2169C14.7805 19.1464 14.7291 19.0592 14.7017 18.9634C14.6743 18.8675 14.6717 18.7663 14.6942 18.6692Z" fill="#2B676D"/>
</svg>
